<?xml version="1.0" encoding="UTF-8" standalone="no"?>
<!-- Created with Inkscape (http://www.inkscape.org/) -->

<svg
   xmlns:dc="http://purl.org/dc/elements/1.1/"
   xmlns:cc="http://creativecommons.org/ns#"
   xmlns:rdf="http://www.w3.org/1999/02/22-rdf-syntax-ns#"
   xmlns:svg="http://www.w3.org/2000/svg"
   xmlns="http://www.w3.org/2000/svg"
   xmlns:sodipodi="http://sodipodi.sourceforge.net/DTD/sodipodi-0.dtd"
   xmlns:inkscape="http://www.inkscape.org/namespaces/inkscape"
   width="150mm"
   height="150mm"
   viewBox="0 0 150 150"
   version="1.1"
   id="svg8"
   inkscape:export-filename="C:\Users\21932849\bitmap.svg.png"
   inkscape:export-xdpi="96"
   inkscape:export-ydpi="96"
   sodipodi:docname="logoBetterly.svg"
   inkscape:version="0.92.4 (5da689c313, 2019-01-14)">
  <defs
     id="defs2" />
  <sodipodi:namedview
     id="base"
     pagecolor="#ffffff"
     bordercolor="#666666"
     borderopacity="1.0"
     inkscape:pageopacity="0.0"
     inkscape:pageshadow="2"
     inkscape:zoom="0.98994949"
     inkscape:cx="464.38818"
     inkscape:cy="329.43756"
     inkscape:document-units="mm"
     inkscape:current-layer="layer1"
     showgrid="false"
     inkscape:window-width="1440"
     inkscape:window-height="838"
     inkscape:window-x="-8"
     inkscape:window-y="-8"
     inkscape:window-maximized="1" />
  <metadata
     id="metadata5">
    <rdf:RDF>
      <cc:Work
         rdf:about="">
        <dc:format>image/svg+xml</dc:format>
        <dc:type
           rdf:resource="http://purl.org/dc/dcmitype/StillImage" />
        <dc:title />
      </cc:Work>
    </rdf:RDF>
  </metadata>
  <g
     inkscape:label="Capa 1"
     inkscape:groupmode="layer"
     id="layer1"
     transform="translate(0,-147)">
    <g
       id="g3786"
       transform="matrix(0.26458333,0,0,0.26458333,28.253721,65.962054)">
      <g
         id="g3725">
        <path
           id="path3713"
           d="m 176.07143,347.14287 v 270.49 h 139.68 v 24.57 l -1.24,3.35 c -21.3,57.77 -76.94,96.59 -138.44,96.59 v 100 c 136.69,0 247.5,-110.81 247.5,-247.5 0,-136.69 -110.81,-247.5 -247.5,-247.5 z m 76.014,241.486 c -22.056,0 -40,-17.944 -40,-40 0,-22.056 17.944,-40 40,-40 22.056,0 40,17.944 40,40 0,22.056 -17.944,40 -40,40 z"
           style="fill:#00aa44"
           inkscape:connector-curvature="0"
           inkscape:export-xdpi="96"
           inkscape:export-ydpi="96" />
        <path
           id="path3715"
           d="m 37.631428,645.55287 -1.24,-3.35 v -24.57 H 176.07143 v -270.49 c -136.690002,0 -247.500002,110.81 -247.500002,247.5 0,136.69 110.81,247.5 247.500002,247.5 v -100 c -61.5,0 -117.140002,-38.82 -138.440002,-96.59 z m 62.426002,-136.924 c 22.056,0 40,17.944 40,40 0,22.056 -17.944,40 -40,40 -22.056002,0 -40.000002,-17.944 -40.000002,-40 0,-22.056 17.944,-40 40.000002,-40 z"
           style="fill:#5fd38d"
           inkscape:connector-curvature="0"
           inkscape:export-xdpi="96"
           inkscape:export-ydpi="96" />
      </g>
      <g
         id="g3727" />
      <g
         id="g3729" />
      <g
         id="g3731" />
      <g
         id="g3733" />
      <g
         id="g3735" />
      <g
         id="g3737" />
      <g
         id="g3739" />
      <g
         id="g3741" />
      <g
         id="g3743" />
      <g
         id="g3745" />
      <g
         id="g3747" />
      <g
         id="g3749" />
      <g
         id="g3751" />
      <g
         id="g3753" />
      <g
         id="g3755" />
    </g>
    <path
       style="fill:#ffffff;stroke-width:1.01015258"
       d="m 260.84244,433.74764 c -24.36684,-3.94307 -48.89277,-14.51919 -68.1853,-29.40299 -16.35494,-12.6175 -31.86208,-31.61949 -41.39576,-50.72513 -7.26325,-14.55565 -8.10064,-17.67881 -8.1012,-30.21447 l -5.1e-4,-11.36422 h 139.40105 139.40105 v 12.08443 c 0,13.34143 -0.61859,15.64785 -8.26819,30.82818 -13.88445,27.55312 -39.63107,52.64929 -67.69038,65.98025 -9.72254,4.61917 -24.09253,9.38874 -35.66329,11.83707 -11.22077,2.37426 -37.64003,2.89568 -49.49747,0.97688 z"
       id="path34"
       inkscape:connector-curvature="0"
       transform="matrix(0.26458333,0,0,0.26458333,0,147)" />
    <path
       style="fill:#ffffff;stroke-width:1.01015258"
       d="m 194.25185,279.61157 c -15.65731,-5.38453 -25.6906,-18.65841 -26.62995,-35.23097 -1.26685,-22.35042 16.6794,-41.43625 38.96217,-41.43625 15.7321,0 29.21488,8.60662 36.33772,23.19586 2.43922,4.99608 2.73089,6.72633 2.73089,16.20009 0,9.47377 -0.29167,11.20402 -2.73089,16.2001 -9.16269,18.76733 -29.61782,27.62318 -48.66994,21.07117 z"
       id="path36"
       inkscape:connector-curvature="0"
       transform="matrix(0.26458333,0,0,0.26458333,0,147)" />
    <path
       style="fill:#ffffff;stroke-width:1.01015258"
       d="m 349.51507,280.82106 c -14.94086,-3.8462 -27.03277,-17.09655 -29.48231,-32.3068 -2.76835,-17.18983 6.75682,-34.7931 22.91683,-42.35215 5.0535,-2.36384 7.03987,-2.70185 15.87765,-2.70185 8.8524,0 10.8201,0.33608 15.91257,2.71784 16.2941,7.6208 26.25454,25.97997 23.01858,42.42804 -1.68516,8.56548 -4.49064,14.12762 -10.37117,20.56185 -7.22514,7.90546 -15.35958,11.66859 -26.2246,12.13196 -4.61797,0.19694 -9.85936,-0.0186 -11.64755,-0.47889 z"
       id="path38"
       inkscape:connector-curvature="0"
       transform="matrix(0.26458333,0,0,0.26458333,0,147)" />
  </g>
</svg>
